<svg width="92" height="91" viewBox="0 0 92 91" fill="none" xmlns="http://www.w3.org/2000/svg">
<path opacity="0.7" d="M4.04603 60.0657C6.49048 51.6537 11.0492 43.5735 18.2016 38.4796C25.2524 33.452 34.2492 31.7613 42.9317 31.9225C54.6778 32.1627 66.5064 35.7619 75.6841 43.0553C84.8619 50.3486 91.1444 61.4877 91.4905 73.1734C91.554 75.4107 91.2905 77.9135 89.5857 79.3892C88.173 80.6185 86.154 80.7954 84.281 80.9092L40.0175 83.6521L17.5508 85.0456L6.48728 85.7314C3.31268 85.9273 1.13811 86.8879 0.690494 83.374C-0.195221 76.2924 2.06508 66.8376 4.04603 60.0657Z" fill="#E59649"/>
<path opacity="0.7" d="M22.9349 19.9429C22.8587 29.1955 30.0175 38.132 39.1826 39.6583C43.9948 40.4364 48.9237 39.3509 52.9571 36.6247C60.1032 31.7488 63.0524 21.7094 59.9222 13.6671C56.7921 5.62489 47.4333 -0.0189125 38.8079 4.76273e-05C29.8365 0.0190078 23.0016 12.1851 22.9349 19.9429Z" fill="#E59649"/>
<path opacity="0.7" d="M51.2122 47L40.8392 56.3046C46.3046 59.005 50.1122 64.2961 53.1332 69.7033C56.5424 75.8078 59.2394 82.3053 61.1683 89.061C51.1401 89.3127 41.139 89.9579 31.1652 90.9968C32.8358 82.6481 35.0886 74.4343 37.906 66.419C38.7239 64.0864 39.6045 61.6054 39.0843 59.1857C38.6707 57.2499 37.4265 55.6787 36.1542 54.2591C35.1671 53.1525 32.8825 51.5845 32.7415 49.9553C32.5754 48.1002 35.5932 48.5389 36.8154 48.4163L43.6754 47.7388L47.5174 47.3613C48.3479 47.2839 50.5729 47.4936 51.2122 47Z" fill="#E59649"/>
</svg>
