<svg width="43" height="36" viewBox="0 0 43 36" fill="none" xmlns="http://www.w3.org/2000/svg">
<path opacity="0.7" d="M15.62 1.42L7.23999 13.66L14.29 9.13L9.95999 19.42L16.9 12.82L12.41 27.58L22.84 16.7L20.34 32.11L33.77 16.77L26.83 17.99L30.39 5.95L19.12 14.05L24.5 0.709999L18.4 7L19.86 0L15.62 1.42Z" fill="#4762AB"/>
<path opacity="0.7" d="M13.32 5.01985L0 17.2498L11.21 12.7198L4.32 23.0198L15.36 16.4098L8.21 31.1798L24.8 20.2998L20.82 35.7098L42.18 20.3598L31.15 21.5798L36.8 9.54984L18.88 17.6398L27.44 4.29984L17.74 10.5898L20.05 3.58984L13.32 5.01985Z" fill="#4762AB"/>
</svg>
