<svg width="31" height="41" viewBox="0 0 31 41" fill="none" xmlns="http://www.w3.org/2000/svg">
<path opacity="0.7" d="M29.4763 18.3681C29.4576 18.234 29.3968 18.1093 29.3027 18.0119C29.2087 17.9145 29.0861 17.8495 28.9528 17.8261C28.8194 17.8028 28.682 17.8223 28.5605 17.882C28.4389 17.9416 28.3394 18.0383 28.2763 18.1581C28.0091 18.7757 27.5818 19.3109 27.0386 19.7082C26.4953 20.1055 25.8559 20.3505 25.1863 20.4181C19.1063 22.1581 13.8963 15.2081 7.82629 16.9481C4.87629 17.7881 3.36629 20.2581 2.97629 23.2781C2.78187 24.8888 3.11148 26.5193 3.91629 27.9281C5.27111 30.3601 7.32984 32.3256 9.82209 33.5663C12.3143 34.8069 15.1236 35.2648 17.8808 34.8797C20.638 34.4946 23.2143 33.2846 25.2712 31.4086C27.3282 29.5326 28.7697 27.0783 29.4063 24.3681C29.8805 22.3988 29.9044 20.3479 29.4763 18.3681Z" fill="#4762AB"/>
<path opacity="0.7" d="M30.5364 27.2876C30.5348 27.1573 30.494 27.0304 30.4193 26.9235C30.3446 26.8167 30.2395 26.7347 30.1176 26.6884C29.9958 26.642 29.8628 26.6333 29.736 26.6635C29.6091 26.6937 29.4943 26.7614 29.4064 26.8576C29.0081 27.4008 28.4715 27.8274 27.8525 28.093C27.2334 28.3585 26.5545 28.4534 25.8864 28.3676C19.5664 28.6376 16.1164 20.6676 9.79642 20.9476C6.59642 21.0876 4.50642 23.3176 3.47642 26.3676C3.05324 27.6404 3.00464 29.008 3.33642 30.3076C4.14892 33.5455 6.10676 36.3795 8.84766 38.2852C11.5886 40.1909 14.927 41.0392 18.2451 40.6732C21.5633 40.3073 24.6366 38.7517 26.8963 36.2945C29.156 33.8373 30.4491 30.6448 30.5364 27.3076V27.2876Z" fill="#4762AB"/>
<path opacity="0.7" d="M6.27626 14.2083C12.3563 12.4783 17.5663 19.4183 23.6463 17.6883C24.4407 17.6549 25.1922 17.3186 25.7463 16.7483C26.4162 16.0739 26.842 15.1952 26.9561 14.2515C27.0702 13.3078 26.8662 12.3529 26.3763 11.5383C25.0112 9.15616 22.9666 7.23535 20.5039 6.02153C18.0413 4.80771 15.2725 4.35606 12.5518 4.72433C9.83105 5.09261 7.28201 6.26407 5.23067 8.0889C3.17932 9.91374 1.71893 12.309 1.03626 14.9683C0.512043 16.9508 0.44706 19.0269 0.846258 21.0383C0.846258 21.1099 0.874704 21.1786 0.925339 21.2292C0.975974 21.2799 1.04465 21.3083 1.11626 21.3083C1.18787 21.3083 1.25654 21.2799 1.30718 21.2292C1.35781 21.1786 1.38626 21.1099 1.38626 21.0383C1.67626 17.7783 3.18626 15.0983 6.27626 14.2083Z" fill="#E59649"/>
<path opacity="0.7" d="M7.02626 7.1882C13.3363 7.5182 16.0263 15.7882 22.3163 16.1182C23.0773 16.3444 23.8959 16.2729 24.6063 15.9182C25.4599 15.4998 26.149 14.8078 26.564 13.9525C26.979 13.0972 27.0959 12.1277 26.8963 11.1982C26.3789 8.50352 25.0701 6.02424 23.1368 4.07706C21.2036 2.12988 18.7338 0.803217 16.0429 0.266542C13.352 -0.270133 10.5622 0.00754738 8.0299 1.06411C5.4976 2.12067 3.33774 3.90815 1.82626 6.1982C1.03127 7.38554 0.430413 8.69189 0.0462601 10.0682C0.0173693 10.1339 0.00169418 10.2046 0.0001299 10.2763C-0.00143438 10.348 0.0111426 10.4193 0.037143 10.4862C0.0631434 10.553 0.102057 10.6141 0.151664 10.6659C0.201271 10.7178 0.260599 10.7593 0.32626 10.7882C0.391921 10.8171 0.462629 10.8328 0.534348 10.8343C0.606067 10.8359 0.677391 10.8233 0.74425 10.7973C0.811108 10.7713 0.87219 10.7324 0.924009 10.6828C0.975828 10.6332 1.01737 10.5739 1.04626 10.5082C1.6438 9.46058 2.51737 8.59704 3.57181 8.01163C4.62625 7.42622 5.82112 7.1414 7.02626 7.1882Z" fill="#E59649"/>
</svg>
