<svg width="35" height="34" viewBox="0 0 35 34" fill="none" xmlns="http://www.w3.org/2000/svg">
<path opacity="0.7" d="M23.4037 1.22951C22.5446 1.45755 21.7643 1.91637 21.1473 2.55624C20.5304 3.19612 20.1003 3.99265 19.9037 4.85951C19.6037 7.03951 21.2837 8.94951 21.9037 11.0495C22.2819 12.3691 22.2543 13.772 21.8245 15.0757C21.3947 16.3794 20.5826 17.5236 19.4937 18.3595C16.7137 20.4295 12.4937 20.2895 10.3937 23.0795C9.77948 24.0077 9.44778 25.0941 9.4389 26.2071C9.43003 27.3201 9.74435 28.4117 10.3437 29.3495C10.9629 30.2716 11.7623 31.0588 12.6938 31.6638C13.6253 32.2687 14.6695 32.6789 15.7637 32.8695C17.9609 33.2515 20.2156 33.1388 22.3637 32.5395C24.0382 32.2602 25.5607 31.3998 26.6637 30.1095C27.9037 28.3495 27.6037 25.9995 27.6637 23.8495C27.6798 20.6745 28.4875 17.5537 30.0137 14.7695C30.9237 13.1195 32.0737 11.5995 32.8937 9.89951C33.8038 8.22385 34.0433 6.26505 33.5637 4.4195C32.2737 0.539505 26.6537 0.209505 23.4037 1.22951Z" fill="#E59649"/>
<path opacity="0.7" d="M1.32374 19.1398C0.539806 20.1983 0.0831899 21.4633 0.0103238 22.7784C-0.0625423 24.0935 0.251535 25.4012 0.913741 26.5398C2.20374 28.6998 4.61374 29.9398 7.03374 30.6398C10.2866 31.5678 13.712 31.7186 17.0337 31.0798C20.4077 30.2783 23.6717 29.0694 26.7537 27.4798C28.9637 26.4798 31.2537 25.3498 32.7537 23.4798C33.7915 22.0685 34.4772 20.4297 34.7537 18.6998C35.3437 15.5398 34.9337 11.8898 32.5137 9.76982C31.1237 8.53982 29.2737 7.99982 27.6037 7.16982C25.706 6.1057 23.9028 4.88124 22.2137 3.50982C20.5248 2.12677 18.5961 1.06583 16.5237 0.379817C15.4911 0.0335207 14.3941 -0.0779522 13.3129 0.0535267C12.2316 0.185006 11.1933 0.556122 10.2737 1.13982C9.38481 1.77374 8.74668 2.69966 8.47071 3.75602C8.19474 4.81239 8.29845 5.93211 8.76374 6.91982C9.57374 8.34982 11.2637 9.15982 12.0037 10.6298C13.3037 13.2198 11.0037 15.8498 8.48374 16.3098C5.77374 16.8198 3.18374 16.6998 1.32374 19.1398Z" fill="#4762AB"/>
<path opacity="0.7" d="M3.87359 14.0701C4.55675 14.2301 5.27134 14.1919 5.93359 13.9601C6.47464 13.6631 6.88044 13.1689 7.06667 12.5805C7.2529 11.992 7.20524 11.3544 6.93359 10.8001C5.93359 8.70012 2.93359 8.80012 1.36359 10.1301C-0.726414 11.9401 2.08359 13.8001 3.87359 14.0701Z" fill="#4762AB"/>
</svg>
