<svg width="98" height="99" viewBox="0 0 98 99" fill="none" xmlns="http://www.w3.org/2000/svg">
<g clip-path="url(#clip0_37_2386)">
<path opacity="0.7" d="M0.504171 58.6435L31.3508 86.9269C54.4872 64.0913 76.3903 40.0304 96.9663 14.847L68.4163 0L50.7493 27.2669C45.0291 36.105 39.831 46.2827 33.0822 54.3052C28.5477 50.5422 23.5499 41.9051 16.4987 43.3551C13.9586 43.8792 0.307871 58.4898 0.504171 58.6435Z" fill="#4762AB"/>
<path opacity="0.7" d="M1.0379 70.7165L31.8846 98.9999C55.022 76.1654 76.9251 52.1043 97.5 26.92L68.9501 12.073L51.283 39.3399C45.5628 48.178 40.3687 58.3557 33.616 66.3782C29.0775 62.6152 24.0797 53.9781 17.0286 55.4242C14.4923 55.9522 0.845528 70.5588 1.0379 70.7165Z" fill="#E59649"/>
</g>
<defs>
<clipPath id="clip0_37_2386">
<rect width="97" height="99" fill="white" transform="translate(0.5)"/>
</clipPath>
</defs>
</svg>
