<svg width="33" height="39" viewBox="0 0 33 39" fill="none" xmlns="http://www.w3.org/2000/svg">
<path opacity="0.7" d="M23.0698 4.21973C18.924 4.53141 15.0263 6.31557 12.081 9.24987C9.13571 12.1842 7.33697 16.0751 7.00977 20.2197C6.83443 21.3428 7.0348 22.4923 7.57977 23.4897C8.51977 24.9197 10.4698 25.2697 12.1898 25.2497C15.0744 25.2118 17.9138 24.5284 20.4998 23.2497C21.7091 22.7011 22.7893 21.9038 23.6698 20.9097C24.1072 20.4108 24.4341 19.825 24.6288 19.1907C24.8236 18.5565 24.8818 17.8881 24.7998 17.2297C24.5658 16.2591 24.0171 15.3932 23.2392 14.7672C22.4613 14.1413 21.498 13.7905 20.4998 13.7697C19.5019 13.779 18.5173 13.9995 17.6107 14.4166C16.7041 14.8337 15.8961 15.438 15.2398 16.1897C13.9471 17.7035 12.9316 19.4333 12.2398 21.2997C11.5166 22.7954 11.0308 24.3945 10.7998 26.0397C10.5742 27.6881 10.9737 29.3612 11.9198 30.7297C12.5825 31.5076 13.41 32.1282 14.3422 32.5468C15.2744 32.9654 16.2881 33.1713 17.3098 33.1497C19.3524 33.0902 21.3746 32.7262 23.3098 32.0697" stroke="#4762AB" stroke-width="7" stroke-linecap="round" stroke-linejoin="round"/>
<path opacity="0.7" d="M25.9299 9.1096C22.5665 8.79738 19.1915 9.57202 16.3008 11.3197C13.4102 13.0675 11.1562 15.6961 9.86994 18.8196C9.02332 20.5045 8.87249 22.4546 9.44994 24.2496C9.85432 25.1083 10.4756 25.8468 11.2524 26.3922C12.0293 26.9376 12.9349 27.271 13.8799 27.3596C15.7892 27.5082 17.689 26.973 19.2399 25.8496C20.7705 24.7225 22.0907 23.3346 23.1399 21.7496C23.5411 21.2485 23.8339 20.6697 23.9999 20.0496C24.084 19.7401 24.0838 19.4137 23.9994 19.1043C23.915 18.7949 23.7495 18.5136 23.5199 18.2896C22.6699 17.5596 21.3599 18.1096 20.4199 18.7096C19.2709 19.3626 18.2535 20.224 17.4199 21.2496C17.0129 21.7624 16.7284 22.3614 16.588 23.0009C16.4476 23.6404 16.4551 24.3035 16.6099 24.9396C16.8326 25.5423 17.1842 26.089 17.6402 26.5415C18.0962 26.9941 18.6456 27.3416 19.2499 27.5596C20.4621 27.9794 21.7285 28.2219 23.0099 28.2796" stroke="#4762AB" stroke-width="7" stroke-linecap="round" stroke-linejoin="round"/>
<path opacity="0.7" d="M8.34 2H0V12.28H8.34V2Z" fill="#4762AB"/>
<path opacity="0.7" d="M30.1 27.96H21.76V38.24H30.1V27.96Z" fill="#4762AB"/>
<path opacity="0.7" d="M32.6198 12.5498H29.3298V16.6098H32.6198V12.5498Z" fill="#4762AB"/>
</svg>
