<svg width="38" height="43" viewBox="0 0 38 43" fill="none" xmlns="http://www.w3.org/2000/svg">
<path opacity="0.7" d="M5.6781 2.29019C4.40798 2.75111 3.316 3.6016 2.5581 4.72019C1.5581 6.47019 2.2281 8.72019 3.4581 10.3202C4.80928 11.8008 6.28834 13.1594 7.8781 14.3802C9.3681 15.7202 10.6981 17.5102 10.7481 19.5102C10.8181 22.1502 8.6781 24.2902 6.5181 25.8102C4.3581 27.3302 1.8881 28.6902 0.6881 31.0402C-1.0519 34.4202 0.6881 38.8802 3.8881 40.9402C7.0881 43.0002 11.2681 43.0102 14.8881 41.8502C17.6163 41.0401 20.0489 39.4519 21.8881 37.2802C22.7916 36.1928 23.4497 34.9231 23.8173 33.5579C24.1849 32.1927 24.2534 30.7643 24.0181 29.3702C23.5681 27.1602 22.2281 25.0102 22.7381 22.8202C23.1681 20.9502 24.8881 19.6202 26.6681 18.9002C28.4481 18.1802 30.3981 17.9002 32.1881 17.1602C33.9781 16.4202 35.7081 15.1602 36.1881 13.2802C36.3556 12.3795 36.2972 11.4512 36.018 10.5786C35.7387 9.70605 35.2474 8.91632 34.5881 8.28019C32.6481 6.23019 29.8781 5.28019 27.4781 3.90019C25.6581 2.90019 24.4781 1.34019 22.3881 0.770192C16.8074 -0.63949 10.9128 -0.103297 5.6781 2.29019Z" fill="#4762AB"/>
<path opacity="0.7" d="M22.2081 10.4001C18.9781 11.4601 16.3981 14.6301 16.5381 18.0201C16.6181 19.8401 17.4181 21.6401 17.0781 23.4301C16.5681 26.0501 13.8381 27.6201 12.6081 29.9901C11.0481 32.9901 12.3081 36.9901 15.0181 38.9901C16.4174 39.944 18.0321 40.5349 19.7167 40.7095C21.4013 40.884 23.1028 40.6368 24.6681 39.9901C27.7901 38.6427 30.4297 36.3796 32.2381 33.5001C33.5986 31.3924 34.7602 29.1628 35.7081 26.8401C36.5581 24.8401 37.8781 22.5401 37.9281 20.3201C38.0181 16.5201 33.1681 12.5201 30.0781 11.1101C27.6332 9.90681 24.8288 9.6538 22.2081 10.4001Z" fill="#4762AB"/>
</svg>
