<svg width="80" height="103" viewBox="0 0 80 103" fill="none" xmlns="http://www.w3.org/2000/svg">
<path opacity="0.7" d="M21.9334 20.9976C16.5488 24.8314 12.9277 30.7536 10.8915 37.0249C8.85522 43.2962 8.29339 49.9554 8.09853 56.5305C7.80625 65.9051 8.25118 75.5577 11.8853 84.2211C15.5194 92.8845 22.8785 100.471 32.1472 102.211C42.3739 104.128 52.9579 98.4899 59.2226 90.2144C65.4872 81.9389 68.0788 71.4652 69.2902 61.1822C70.0826 54.3711 70.3229 47.4178 68.9459 40.6971C67.5689 33.9765 64.461 27.466 59.359 22.8563C54.1628 18.1496 47.8591 16.446 41.0132 17.1572C33.9528 17.891 28.2792 16.4784 21.9334 20.9976Z" fill="#E59649"/>
<path opacity="0.7" d="M78.9357 59.3434C78.652 55.9298 78.3706 52.5172 78.0913 49.1057C77.9289 47.137 77.7373 45.0779 76.6656 43.4131C75.5224 41.6319 73.9538 40.9789 72.33 41.0629C72.4577 31.4677 69.1397 22.1422 62.9736 14.7656C56.6567 7.33259 47.8477 2.42994 38.178 0.965526C30.1856 -0.211148 21.4658 1.26616 15.3668 6.54503C10.4466 10.7992 7.68615 17.106 6.53325 23.4904C5.4388 29.5548 4.80226 36.7991 6.36761 43.0639C5.08451 43.2287 3.88707 43.7946 2.94786 44.6802C1.82094 45.8246 1.35003 47.4474 0.999289 49.0152C-0.205883 54.6217 -0.227985 60.4162 0.934352 66.0317C1.31108 67.8355 1.84368 69.6845 3.08102 71.0584C4.31837 72.4323 6.43578 73.1693 8.08233 72.3288C9.84903 71.4269 10.3979 69.2126 10.6967 67.2601C11.4689 62.1832 11.8274 57.0525 11.7684 51.9181C11.7392 49.568 11.8398 46.9948 11.4111 44.677C11.1871 43.4712 10.3329 43.0607 9.30344 42.9314C11.1221 37.4359 12.668 31.8758 15.646 26.7489C19.2801 20.3612 24.6225 14.6654 31.4977 12.0114C34.6984 10.7959 38.1194 10.2611 41.5403 10.4415C44.9613 10.6219 48.3063 11.5135 51.3601 13.0588C54.3939 14.6401 57.0618 16.8359 59.1922 19.5048C61.3226 22.1737 62.8684 25.2568 63.7303 28.5559C64.9644 33.4049 64.8865 39.007 68.3387 42.579C66.6759 43.7654 65.3249 45.4884 64.8118 47.1888C63.9934 49.8912 64.3701 52.7973 64.8767 55.5742C65.3833 58.351 66.0199 61.1634 65.7016 63.979C65.0781 69.4744 60.8302 74.0001 55.9847 76.764C50.3209 79.9589 43.7763 81.2598 37.3142 80.475C36.3886 77.1519 32.9884 74.5206 29.5524 74.9796C26.1164 75.4386 23.4696 79.405 24.8108 82.5859C26.0774 85.5923 29.7537 86.6429 32.9688 87.2538C41.0522 88.7861 49.5739 89.8399 57.378 87.2538C65.182 84.6677 71.9922 77.4331 71.5311 69.2546C73.6583 70.7772 76.8669 69.3225 78.0945 67.0176C79.3221 64.7128 79.15 61.9424 78.9357 59.3434Z" fill="#E59649"/>
</svg>
