<svg width="41" height="44" viewBox="0 0 41 44" fill="none" xmlns="http://www.w3.org/2000/svg">
<g opacity="0.7">
<path opacity="0.7" d="M20.5002 43.6097C29.5245 43.6097 36.8402 36.294 36.8402 27.2697C36.8402 18.2454 29.5245 10.9297 20.5002 10.9297C11.4758 10.9297 4.16016 18.2454 4.16016 27.2697C4.16016 36.294 11.4758 43.6097 20.5002 43.6097Z" fill="#E59649"/>
</g>
<path opacity="0.7" d="M23.6099 0.730469H17.3999V26.6305H23.6099V0.730469Z" fill="#E59649"/>
<path opacity="0.7" d="M40.6428 19.9234L36.2517 15.5322L24.7966 26.9874L29.1877 31.3785L40.6428 19.9234Z" fill="#E59649"/>
<path opacity="0.7" d="M4.74465 15.5356L0.353516 19.9268L11.8086 31.3819L16.1998 26.9908L4.74465 15.5356Z" fill="#E59649"/>
<path opacity="0.7" d="M20.5001 43.5393C24.2998 43.5393 27.3801 40.459 27.3801 36.6593C27.3801 32.8596 24.2998 29.7793 20.5001 29.7793C16.7004 29.7793 13.6201 32.8596 13.6201 36.6593C13.6201 40.459 16.7004 43.5393 20.5001 43.5393Z" fill="#E59649"/>
</svg>
