<svg width="39" height="37" viewBox="0 0 39 37" fill="none" xmlns="http://www.w3.org/2000/svg">
<path opacity="0.7" d="M29.23 33.5691L24.53 14.3591L8.98999 2.78906L14.23 21.3891L29.23 33.5691Z" fill="#4762AB"/>
<path opacity="0.7" d="M2.40015 24.1301L22.1701 24.1501L37.1201 11.8301L17.8101 12.4801L2.40015 24.1301Z" fill="#4762AB"/>
<path opacity="0.7" d="M21.9 10.55L19.51 6.77L24.24 0L25.22 7.94L21.9 10.55Z" fill="#E94446"/>
<path opacity="0.7" d="M28.1399 21.4701L31.9199 19.0801L38.6899 23.8101L30.7499 24.7801L28.1399 21.4701Z" fill="#E94446"/>
<path opacity="0.7" d="M15.8701 25.9102L17.9501 29.8702L12.6801 36.2302L12.3601 28.2402L15.8701 25.9102Z" fill="#E94446"/>
<path opacity="0.7" d="M10.57 14.3991L6.82 16.8391L0 12.1991L7.92 11.1191L10.57 14.3991Z" fill="#E94446"/>
</svg>
