<svg width="38" height="38" viewBox="0 0 38 38" fill="none" xmlns="http://www.w3.org/2000/svg">
<path opacity="0.7" d="M18.7001 22.7C22.3286 22.7 25.2701 17.6184 25.2701 11.35C25.2701 5.08157 22.3286 0 18.7001 0C15.0716 0 12.1301 5.08157 12.1301 11.35C12.1301 17.6184 15.0716 22.7 18.7001 22.7Z" fill="#E59649"/>
<path opacity="0.7" d="M18.7001 37.4002C22.3286 37.4002 25.2701 32.3186 25.2701 26.0502C25.2701 19.7818 22.3286 14.7002 18.7001 14.7002C15.0716 14.7002 12.1301 19.7818 12.1301 26.0502C12.1301 32.3186 15.0716 37.4002 18.7001 37.4002Z" fill="#E59649"/>
<path opacity="0.7" d="M26.0499 25.2699C32.3184 25.2699 37.4 22.3284 37.4 18.6999C37.4 15.0714 32.3184 12.1299 26.0499 12.1299C19.7815 12.1299 14.7 15.0714 14.7 18.6999C14.7 22.3284 19.7815 25.2699 26.0499 25.2699Z" fill="#E59649"/>
<path opacity="0.7" d="M11.35 25.2699C17.6184 25.2699 22.7 22.3284 22.7 18.6999C22.7 15.0714 17.6184 12.1299 11.35 12.1299C5.08157 12.1299 0 15.0714 0 18.6999C0 22.3284 5.08157 25.2699 11.35 25.2699Z" fill="#E59649"/>
<path opacity="0.7" d="M31.9258 31.9261C34.4915 29.3604 32.9783 23.6872 28.5458 19.2548C24.1134 14.8223 18.4402 13.3091 15.8745 15.8748C13.3087 18.4406 14.822 24.1137 19.2544 28.5462C23.6869 32.9786 29.36 34.4919 31.9258 31.9261Z" fill="#E59649"/>
<path opacity="0.7" d="M21.5281 21.5258C24.0938 18.96 22.5806 13.2868 18.1481 8.85439C13.7156 4.42194 8.04249 2.90868 5.47675 5.47443C2.911 8.04017 4.42427 13.7133 8.85672 18.1458C13.2892 22.5782 18.9623 24.0915 21.5281 21.5258Z" fill="#E59649"/>
<path opacity="0.7" d="M28.5419 18.1417C32.9744 13.7092 34.4876 8.03609 31.9219 5.47034C29.3561 2.9046 23.683 4.41786 19.2505 8.85031C14.8181 13.2828 13.3048 18.9559 15.8705 21.5217C18.4363 24.0874 24.1094 22.5741 28.5419 18.1417Z" fill="#E59649"/>
<path opacity="0.7" d="M18.142 28.5499C22.5744 24.1175 24.0877 18.4443 21.522 15.8785C18.9562 13.3128 13.2831 14.8261 8.85061 19.2585C4.41816 23.691 2.9049 29.3641 5.47064 31.9299C8.03639 34.4956 13.7095 32.9824 18.142 28.5499Z" fill="#E59649"/>
</svg>
