<svg width="20" height="40" viewBox="0 0 20 40" fill="none" xmlns="http://www.w3.org/2000/svg">
<path opacity="0.7" d="M9.77 29.2597C15.1658 29.2597 19.54 24.8855 19.54 19.4897C19.54 14.0939 15.1658 9.71973 9.77 9.71973C4.37418 9.71973 0 14.0939 0 19.4897C0 24.8855 4.37418 29.2597 9.77 29.2597Z" fill="#4762AB"/>
<path opacity="0.7" d="M9.77 39.0205C15.1658 39.0205 19.54 34.6463 19.54 29.2505C19.54 23.8546 15.1658 19.4805 9.77 19.4805C4.37418 19.4805 0 23.8546 0 29.2505C0 34.6463 4.37418 39.0205 9.77 39.0205Z" fill="#4762AB"/>
<path opacity="0.7" d="M9.77 19.54C15.1658 19.54 19.54 15.1658 19.54 9.77C19.54 4.37418 15.1658 0 9.77 0C4.37418 0 0 4.37418 0 9.77C0 15.1658 4.37418 19.54 9.77 19.54Z" fill="#4762AB"/>
</svg>
