<svg width="75" height="94" viewBox="0 0 75 94" fill="none" xmlns="http://www.w3.org/2000/svg">
<path opacity="0.7" d="M64.3811 15.5607C65.2535 16.2862 66.1218 17.0158 66.9736 17.7619C68.8266 19.3495 70.5724 21.0584 72.1996 22.8774C73.8662 24.7777 74.4835 25.6516 74.3888 28.1001C73.7551 44.8935 74.0103 61.7569 74.4958 78.5379C74.6069 82.3591 72.9609 87.0954 70.4631 90.055C68.6978 92.1449 65.879 93.7649 63.0808 93.6454C60.2003 93.5258 57.3815 93.3362 54.4187 93.3898L36.9753 93.6907C33.852 93.7484 30.7287 93.7896 27.6055 93.8391C22.688 93.9133 17.7295 94.4492 12.9191 93.0724C10.7463 92.4459 8.64769 91.3741 7.15806 89.6799C5.66843 87.9857 4.83717 85.7557 4.14585 83.5751C2.89869 79.601 1.93608 75.5428 1.26535 71.4315C0.619297 67.5155 0.586373 63.8674 0.541108 59.9473C0.450578 51.2525 0.724911 42.5631 1.36411 33.8793C1.5534 31.2769 1.77566 28.6786 2.03079 26.0844C2.64804 19.7529 1.77563 6.65292 7.97282 2.62564C14.672 -1.72728 29.0292 0.62643 36.6543 0.717116C40.1397 0.754214 43.6292 0.910857 47.1105 1.04276C49.9498 1.14582 50.0487 1.5168 51.7029 3.65616C53.0382 5.34957 54.4975 6.94097 56.0689 8.41717C58.686 10.9481 61.5459 13.2235 64.3811 15.5607Z" fill="#E59649"/>
<path opacity="0.7" d="M50.4561 25.3385L73.7469 25.6147C73.7953 25.6164 73.8432 25.6033 73.884 25.5772C73.9248 25.551 73.9566 25.5131 73.9754 25.4683C73.9942 25.4236 73.9989 25.3742 73.989 25.3267C73.979 25.2792 73.9549 25.2359 73.9198 25.2025C73.0968 24.3781 72.0475 22.5355 71.5496 22.1521C70.3562 21.2329 69.7266 20.0911 68.5003 19.1513C66.4222 17.6027 64.4483 15.9186 62.5912 14.11C60.4761 11.983 57.8508 9.98787 55.8961 7.6795C54.1581 5.59182 52.3106 3.59805 50.3615 1.70661C50.3216 1.66983 50.2727 1.64424 50.2197 1.63241C50.1668 1.62059 50.1116 1.62294 50.0599 1.63924C50.0082 1.65554 49.9617 1.68521 49.9251 1.72526C49.8884 1.76531 49.8629 1.81433 49.8512 1.86737C49.5303 3.42552 49.954 5.60197 49.9911 7.11478L50.1475 13.1866L50.4561 25.3385Z" fill="#E59649"/>
<path opacity="0.7" d="M15.0218 63.0472C22.5722 66.8344 29.5957 71.5946 35.9136 77.2065C39.0246 74.2716 41.4237 70.6772 43.7939 67.1198L61.5707 40.4128L52.5177 36.4639L34.1442 63.4099C33.8849 63.7974 29.4408 61.3489 28.9799 61.0603C27.3124 60.0666 25.7575 58.8945 24.3423 57.5648C22.4124 55.7511 21.6922 56.019 19.894 57.9152L15.0218 63.0472Z" fill="#E59649"/>
</svg>
