<svg width="117" height="106" viewBox="0 0 117 106" fill="none" xmlns="http://www.w3.org/2000/svg">
<g clip-path="url(#clip0_39_666)">
<path opacity="0.7" d="M48.2207 21.6512C41.5344 14.7846 31.2463 11.2133 21.9805 13.6627C12.7147 16.1121 5.25866 25.1226 5.71695 34.6912C6.187 44.618 14.7007 52.9002 24.2896 55.4729C33.8785 58.0457 44.1725 55.9781 53.4089 52.3128C36.6283 53.2702 20.6174 63.1442 12.2447 77.7114C10.435 80.8598 8.93676 84.2902 8.71936 87.9202C8.50196 91.5503 9.66533 95.4094 12.4562 97.759C15.4821 100.279 19.7713 100.608 23.6962 100.255C33.1873 99.4084 42.0929 95.304 48.9011 88.639C55.7094 81.974 60.0009 73.1591 61.0471 63.6905C64.3374 70.1811 67.8627 76.8186 73.5033 81.412C79.1438 86.0054 87.4871 88.0788 93.8092 84.4723C99.0561 81.4707 101.694 75.4794 103.968 69.8816C105.977 64.9357 107.981 59.3438 105.925 54.4156C104.033 49.8751 98.9797 47.226 94.0677 47.0146C89.1558 46.8031 84.3613 48.6357 80.0134 50.9383C85.8478 48.7943 91.5882 46.1511 96.3944 42.2156C101.201 38.2801 105.049 32.9231 106.254 26.826C107.458 20.729 105.695 13.9035 101.013 9.79179C96.4885 5.8328 89.8784 4.89886 84.0146 6.22048C78.8074 7.40574 74.09 10.1615 70.5009 14.115C67.6852 17.3428 65.5526 21.1073 64.2316 25.1814C63.0154 28.7057 63.2504 34.9555 61.0236 37.8572C57.557 42.3859 56.5875 35.954 55.6357 33.4694C53.9925 29.0674 51.4696 25.0462 48.2207 21.6512Z" fill="#4762AB"/>
<path opacity="0.7" d="M84.4494 35.7074C88.104 26.8496 87.3108 15.9888 81.3882 8.45257C75.4657 0.91638 64.2375 -2.34949 55.6298 1.8562C46.7048 6.22049 42.4921 17.3045 43.8787 27.1139C45.2653 36.9233 51.2936 45.5696 58.3208 52.5889C50.7942 37.5694 35.4061 26.7908 18.6843 24.8701C15.0708 24.4589 11.3281 24.4471 7.90264 25.663C4.47719 26.8789 1.40428 29.5045 0.376055 32.9878C-0.746176 36.7647 0.652205 40.8353 2.53238 44.295C7.07211 52.6711 14.3711 59.2188 23.1905 62.827C32.0099 66.4351 41.8065 66.8813 50.9176 64.0899C46.2583 69.6819 41.5637 75.544 39.5778 82.5457C37.5918 89.5473 38.9902 98.0233 44.8129 102.394C49.6485 106.024 56.1939 106.071 62.2398 105.918C67.5807 105.806 73.5033 105.43 77.2166 101.589C80.6362 98.0645 81.071 92.3668 79.32 87.7675C77.5691 83.1683 73.9851 79.503 70.1483 76.4251C74.4257 80.9303 79.1262 85.1537 84.6492 88.0084C90.1722 90.8631 96.6118 92.2669 102.687 90.9453C108.762 89.6237 114.333 85.3123 116.236 79.3973C118.075 73.6761 116.318 67.2325 112.775 62.363C109.627 58.0559 105.229 54.8218 100.178 53.0999C96.1118 51.8222 91.8291 51.3787 87.587 51.7959C83.8384 52.0896 78.2155 54.7681 74.6607 53.8811C69.126 52.489 74.6607 49.0528 76.5585 47.1908C79.9409 43.9378 82.6257 40.0307 84.4494 35.7074Z" fill="#E59649"/>
</g>
<defs>
<clipPath id="clip0_39_666">
<rect width="117" height="106" fill="white"/>
</clipPath>
</defs>
</svg>
