<svg width="109" height="110" viewBox="0 0 109 110" fill="none" xmlns="http://www.w3.org/2000/svg">
<path opacity="0.7" d="M92.6342 13.9592C84.8044 6.53709 73.5427 2.59158 62.8953 4.39114C52.7055 6.1231 43.7317 12.9918 38.5457 21.9051C30.8854 35.0427 31.7328 52.7679 41.054 64.7861C50.3752 76.8042 67.8101 82.0339 82.025 76.5761C95.0789 71.5534 100.795 60.0675 103.76 47.3059C106.671 34.9202 101.922 22.7669 92.6342 13.9592Z" fill="#E59649"/>
<path opacity="0.7" d="M63.6453 41.269C55.8197 33.8469 44.5792 29.8929 33.9106 31.7009C23.742 33.4329 14.747 40.3016 9.56104 49.2149C1.91341 62.3525 2.73537 80.0777 12.0481 92.0959C21.3609 104.114 38.8042 109.344 53.0191 103.882C66.0942 98.8632 71.7929 87.3773 74.7841 74.6157C77.6864 62.23 72.9368 50.0766 63.6453 41.269Z" fill="#4762AB"/>
</svg>
