<svg width="115" height="98" viewBox="0 0 115 98" fill="none" xmlns="http://www.w3.org/2000/svg">
<g clip-path="url(#clip0_37_2394)">
<path opacity="0.7" d="M94.8027 62.0549L114.525 64.0739V41.3847L97.9513 40.2184C96.8352 35.5916 94.6482 31.29 91.5656 27.6584L103.468 16.2501L89.92 5.82672L78.4454 18.274C74.6341 16.5492 70.6351 15.2714 66.5286 14.4663L67.511 -0.00976562H51.5123L49.6457 13.7116C46.7989 14.0356 43.9905 14.6363 41.2608 15.5052L34.3003 3.55793e-05L20.1682 7.05184L29.2507 22.2189C26.1469 24.9688 23.592 28.2792 21.7204 31.9757L3.26569 29.7362L0.490356 49L19.063 51.6414C19.7115 54.7158 20.8368 57.6703 22.3983 60.3986L10.6093 67.1367L24.1274 84.6119L37.0757 72.9095C40.638 74.3262 44.3486 75.3388 48.1377 75.9282L45.3722 95.0401L65.3497 97.9804L65.1581 77.2955C67.3284 77.3027 69.4971 77.1767 71.6519 76.9181L83.0185 97.9902L102.839 85.2147L88.0092 70.0476C90.7106 67.786 93.0077 65.0834 94.8027 62.0549Z" fill="#E59649"/>
<path opacity="0.7" d="M58.1435 67.1219C70.9835 67.1219 81.3925 58.1769 81.3925 47.1426C81.3925 36.1084 70.9835 27.1633 58.1435 27.1633C45.3034 27.1633 34.8945 36.1084 34.8945 47.1426C34.8945 58.1769 45.3034 67.1219 58.1435 67.1219Z" fill="#4762AB"/>
</g>
<defs>
<clipPath id="clip0_37_2394">
<rect width="114" height="98" fill="white" transform="translate(0.5)"/>
</clipPath>
</defs>
</svg>
