<svg width="92" height="88" viewBox="0 0 92 88" fill="none" xmlns="http://www.w3.org/2000/svg">
<path opacity="0.7" d="M90.8548 42.0614C90.737 39.1503 90.5212 36.1376 89.1555 33.562C86.4831 28.5162 79.2114 26.5728 74.3532 29.605C73.7855 38.7106 73.2152 47.8162 72.6422 56.9218C72.4342 60.2544 72.1281 63.8446 69.9501 66.389C67.0305 69.8036 61.9211 70.0806 57.416 70.0962L35.9581 70.1743C32.4576 70.1743 28.7178 70.1274 25.8295 68.1684C22.2271 65.7256 20.9948 61.0622 20.3748 56.7735C19.5893 51.3473 19.3474 45.8571 19.6527 40.3834C19.8136 37.5269 20.1197 34.643 19.6174 31.8255C19.1151 29.0079 17.6553 26.2021 15.1202 24.848C10.9252 22.6041 5.44686 25.3202 3.0452 29.4138C0.643545 33.5074 0.482658 38.4907 0.404172 43.2322L0.0117446 67.3919C-0.0706651 72.4377 0.117687 78.143 3.87322 81.5419C6.9577 84.3361 11.502 84.6639 15.6735 84.8161L65.0605 86.8063C70.4485 87.0248 80.428 89.4638 85.349 86.6814C90.1366 83.977 89.5441 73.8347 90.0189 69.1831C90.9431 60.1736 91.2224 51.1103 90.8548 42.0614Z" fill="#E59649"/>
<path opacity="0.7" d="M52.6323 52.9253L56.537 20.4652L69.2948 19.3686C61.3952 15.7441 54.1277 10.8897 47.7662 4.98828L29.2437 20.4496L39.8392 20.2583C39.1289 20.2583 37.8771 31.5089 37.7593 32.625C37.2722 37.0215 37.0494 41.443 37.0922 45.8659C37.1275 48.9604 36.7939 51.657 40.3179 52.3633C44.2147 53.1477 48.6688 52.7653 52.6323 52.9253Z" fill="#E59649"/>
<path opacity="0.7" d="M48.8631 48.0073L52.7677 15.5472L65.5256 14.4506C57.626 10.8262 50.3585 5.97174 43.997 0.0703125L25.4744 15.5316L36.07 15.3404C35.3597 15.3404 34.1078 26.591 33.9901 27.7071C33.503 32.1035 33.2802 36.525 33.323 40.9479C33.3583 44.0425 33.0247 46.739 36.5487 47.4454C40.4455 48.2297 44.8996 47.8473 48.8631 48.0073Z" fill="#E59649"/>
</svg>
