<svg width="79" height="99" viewBox="0 0 79 99" fill="none" xmlns="http://www.w3.org/2000/svg">
<path opacity="0.7" d="M67.928 16.339C68.8488 17.1007 69.7652 17.8668 70.6643 18.6502C72.6192 20.3183 74.4619 22.1127 76.1806 24.0216C77.918 26.0169 78.5868 26.9345 78.4913 29.5055C78.0265 41.7111 78.3219 53.9947 78.2394 66.209L78.1047 86.0237C78.1047 88.4952 78.0352 91.0921 76.7756 93.2173C74.3389 97.3161 68.7098 97.8658 63.9276 97.948L2.90189 99.0041C0.00272474 75.2342 -0.275482 51.2193 2.07227 27.389C2.72814 20.7408 1.80735 6.98561 8.34862 2.75691C15.4198 -1.81372 30.5741 0.657712 38.6226 0.752933C42.3015 0.791887 45.9804 0.956364 49.6593 1.09487C52.652 1.20307 52.7606 1.59261 54.5067 3.83898C55.9161 5.61707 57.4565 7.28807 59.1151 8.8381C61.9296 11.4956 64.9701 13.8848 67.928 16.339Z" fill="#E59649"/>
<path opacity="0.7" d="M53.2427 26.6056L77.8224 26.8956C77.8739 26.8983 77.9249 26.8853 77.9687 26.8582C78.0125 26.8311 78.0469 26.7912 78.0672 26.7441C78.0876 26.6969 78.093 26.6446 78.0826 26.5943C78.0722 26.544 78.0466 26.4981 78.0092 26.4628C77.1405 25.5971 76.0329 23.6624 75.5073 23.2599C74.2434 22.2947 73.5832 21.0957 72.2888 20.1089C70.0948 18.4818 68.0098 16.7135 66.0473 14.8154C63.8147 12.5821 61.0436 10.4872 58.9804 8.06337C57.1474 5.87131 55.1988 3.77782 53.1428 1.79174C53.1007 1.75313 53.0491 1.72626 52.9932 1.71384C52.9373 1.70142 52.8792 1.7039 52.8245 1.72101C52.7699 1.73813 52.7208 1.76928 52.6821 1.81133C52.6435 1.85338 52.6166 1.90485 52.6042 1.96055C52.2655 3.59663 52.7085 5.88194 52.7519 7.4704L52.9126 13.8459L53.2427 26.6056Z" fill="#E59649"/>
<path opacity="0.7" d="M20.8839 39.625C19.773 39.6161 18.6686 39.7946 17.6176 40.153C17.0565 40.3669 16.5471 40.6964 16.1226 41.1201C15.6982 41.5438 15.3685 42.052 15.1549 42.6115C14.7205 43.8191 14.9768 45.4162 15.8976 46.1347C16.5491 46.6368 17.37 46.6411 18.1431 46.6281L59.8013 46.0048C61.1348 46.0048 62.655 45.862 63.4933 44.6198C64.3316 43.3776 64.084 41.7285 63.7018 40.3651C63.1849 38.504 62.099 38.9887 60.6179 38.9714C57.3806 38.9253 54.1447 38.9036 50.9103 38.9065C44.4414 38.9065 37.974 39.0075 31.508 39.2095C27.9637 39.3191 24.4223 39.4576 20.8839 39.625Z" fill="#E59649"/>
<path opacity="0.7" d="M20.8839 56.5312C19.7762 56.5254 18.6752 56.7039 17.6263 57.0593C17.0657 57.2739 16.5566 57.6037 16.1323 58.0272C15.708 58.4508 15.3779 58.9587 15.1636 59.5177C14.7292 60.7296 14.9855 62.3268 15.9063 63.0409C16.5579 63.543 17.3787 63.5517 18.1519 63.5387L59.8101 62.9111C61.1435 62.9111 62.6638 62.7683 63.5021 61.526C64.3403 60.2838 64.0928 58.6348 63.7105 57.2714C63.1937 55.4102 62.1078 55.8993 60.6267 55.8777C57.3893 55.8315 54.1535 55.8099 50.919 55.8128C44.4502 55.8128 37.9827 55.9152 31.5167 56.1201C27.9667 56.2297 24.4224 56.3668 20.8839 56.5312Z" fill="#E59649"/>
<path opacity="0.7" d="M20.8839 74.5456C19.773 74.5366 18.6686 74.7152 17.6176 75.0736C17.0565 75.2875 16.5471 75.617 16.1226 76.0407C15.6982 76.4643 15.3685 76.9726 15.1549 77.5321C14.7205 78.744 14.9768 80.3368 15.8976 81.0553C16.5491 81.5573 17.37 81.5617 18.1431 81.553L59.8013 80.9254C61.1348 80.9038 62.655 80.7826 63.4933 79.5404C64.3316 78.2982 64.084 76.6491 63.7018 75.2857C63.1849 73.4246 62.099 73.9137 60.6179 73.892C57.3806 73.843 54.1447 73.8213 50.9103 73.8271C44.4414 73.8271 37.974 73.9281 31.508 74.1301C27.9637 74.2397 24.4223 74.3782 20.8839 74.5456Z" fill="#E59649"/>
</svg>
