<svg width="99" height="98" viewBox="0 0 99 98" fill="none" xmlns="http://www.w3.org/2000/svg">
<path opacity="0.7" d="M0.534506 96.6159L23.5975 97.3352L29.1178 60.1139C29.3228 58.7468 29.4372 57.1215 28.4041 56.2114C27.5603 55.4643 26.2985 55.5358 25.1826 55.6471L11.6461 57.0221C8.95296 57.2923 4.94286 56.9506 3.16453 59.4781C1.58731 61.7075 1.66617 65.4988 1.36649 68.078C0.840751 72.5502 0.504276 77.0395 0.357068 81.5461C0.309751 82.8139 0.148085 96.6159 0.534506 96.6159Z" fill="#E59649"/>
<path opacity="0.7" d="M30.8232 94.8554L54.7892 94.6726L59.8009 34.1592C59.9467 32.359 59.9783 30.2607 58.6179 29.1042C57.6677 28.3094 56.327 28.2339 55.0692 28.1981L38.528 27.7093C36.4934 27.6497 34.1906 27.7093 32.7948 29.1837C31.3201 30.7733 31.4975 33.2094 31.7656 35.3515L33.3074 47.4803C33.7332 50.8543 34.3957 54.0098 33.7608 57.34C32.2782 65.1014 32.4478 73.5463 31.8484 81.4309C31.7578 82.5596 30.9731 94.8554 30.8232 94.8554Z" fill="#4762AB"/>
<path opacity="0.7" d="M37.0101 89.1581L60.9761 88.9753L65.9877 28.462C66.1336 26.6617 66.1652 24.5634 64.8048 23.4069C63.8545 22.6121 62.5139 22.5366 61.2561 22.5008L44.7149 22.012C42.6803 21.9524 40.3775 22.012 38.9817 23.4864C37.507 25.076 37.6844 27.5122 37.9525 29.6542L39.4943 41.7831C39.9201 45.1571 40.5826 48.3125 39.9477 51.6428C38.4651 59.4042 38.6347 67.8491 38.0353 75.7337C37.9446 76.8623 37.16 89.1581 37.0101 89.1581Z" fill="#4762AB"/>
<path opacity="0.7" d="M73.8756 91.916C71.1549 91.7571 67.961 91.2524 66.6519 88.3394C65.9225 86.714 66.021 84.7627 66.1354 82.9028L70.8671 6.99789C70.9735 5.27314 71.1352 3.39738 72.1289 2.15349C73.3118 0.695005 75.1847 0.635393 76.8605 0.67116C82.4834 0.794356 92.0887 1.40239 97.7115 1.52956C98.3936 1.52956 97.6878 21.2609 97.8219 23.24C98.3463 30.9974 96.7099 39.3906 96.8125 47.1719C96.915 54.8895 96.8138 62.6059 96.5088 70.3209C96.3511 74.2075 96.1435 78.0915 95.8858 81.9729C95.7544 83.9122 95.6111 85.8503 95.4561 87.787C95.3693 88.86 95.5507 92.1306 94.8843 92.8778C94.1351 93.7163 91.3355 92.9453 90.3498 92.8778L84.8531 92.5559L73.8756 91.916Z" fill="#E59649"/>
</svg>
