<svg width="101" height="95" viewBox="0 0 101 95" fill="none" xmlns="http://www.w3.org/2000/svg">
<g clip-path="url(#clip0_37_2382)">
<path opacity="0.7" d="M100.516 16.5915C96.5944 42.252 94.0806 68.1056 92.9861 94.0376C67.4908 91.4364 41.7791 91.758 16.3578 94.996C20.2734 80.5798 20.9773 65.4879 18.4203 50.7734C17.1673 43.6079 15.117 36.4626 15.1658 29.1353C15.1658 26.3936 14.8932 23.3689 17.3382 21.8282C19.6937 20.3401 24.7464 20.4048 27.4802 19.9519C42.8847 17.4141 58.4598 16.034 74.0731 15.8232C82.8875 15.7073 91.7019 15.9634 100.516 16.5915Z" fill="#4762AB"/>
<path opacity="0.7" d="M85.871 0.796582C81.9489 26.457 79.4352 52.3106 78.3408 78.2426C52.8456 75.6394 27.1337 75.961 1.71251 79.201C5.62808 64.7834 6.33197 49.6903 3.77508 34.9744C2.52208 27.8129 0.471716 20.6636 0.520534 13.3403C0.520534 10.5987 0.247966 7.57392 2.69294 6.02921C5.04842 4.54515 10.1011 4.6058 12.8349 4.15695C28.239 1.61514 43.8144 0.234982 59.4278 0.0282685C68.2422 -0.0930442 77.0566 0.16306 85.871 0.796582Z" fill="#E59649"/>
</g>
<defs>
<clipPath id="clip0_37_2382">
<rect width="100" height="95" fill="white" transform="translate(0.5)"/>
</clipPath>
</defs>
</svg>
