<svg width="87" height="96" viewBox="0 0 87 96" fill="none" xmlns="http://www.w3.org/2000/svg">
<path opacity="0.7" d="M24.5053 7.88172L43.5708 70.6645L65.8521 15.9352C67.0407 13.0239 68.3387 9.9524 70.8545 8.04549C75.1715 4.77024 81.2787 6.06942 86.4999 7.51053L53.8491 85.2975C52.6532 88.1506 51.3807 91.1202 49.0326 93.1326C44.464 97.0629 37.6094 96.164 31.6845 95.0359C30.7693 94.8612 28.6509 86.7277 28.2498 85.5959C27.0564 82.2261 25.8969 78.8477 24.7715 75.4609C22.5182 68.6823 20.3937 61.8626 18.3981 55.0015C14.4068 41.2868 10.9418 27.4313 8.00305 13.4351C7.02954 8.79879 7.04776 8.10007 11.9153 8.04185L24.5053 7.88172Z" fill="#E59649"/>
<path opacity="0.7" d="M17.2578 2.30262L36.3233 65.0854L58.6046 10.3561C59.7932 7.44475 61.0912 4.3733 63.607 2.46638C67.924 -0.808857 74.0312 0.490321 79.2524 1.93143L46.6016 79.7184C45.4057 82.5715 44.1332 85.5411 41.7851 87.5535C37.2165 91.4838 30.3619 90.5849 24.437 89.4568C23.5218 89.2821 21.4034 81.1486 21.0023 80.0168C19.8089 76.647 18.6494 73.2686 17.524 69.8818C15.2707 63.1032 13.1462 56.2835 11.1506 49.4224C7.15932 35.7077 3.69431 21.8522 0.755552 7.85598C-0.217956 3.21969 -0.199733 2.52097 4.66781 2.46274L17.2578 2.30262Z" fill="#E59649"/>
<path opacity="0.7" d="M67.3981 78.1605C65.5531 79.4743 64.0582 81.4758 63.9124 83.7357C63.7045 86.9018 66.4063 89.8459 69.5493 90.3371C72.6922 90.8284 75.9445 89.118 77.7274 86.4906C79.1494 84.3908 79.7182 81.6214 78.8213 79.2559C76.7138 73.8372 71.0442 75.584 67.3981 78.1605Z" fill="#E59649"/>
</svg>
